ffmpeg started on 2016-12-09 at 02:08:05
Report written to "Output/x264/results/ffmpeg/sintelveryslow14000k.log"
Command line:
Tools/ffmpeg/ffmpeg -benchmark -y -i Input/y4m/sintel.y4m -c:v libx264 -preset veryslow -b:v 14000k -an Output/x264/encoded/sintelveryslow14000k.mkv
ffmpeg version N-82227-gdb23fde Copyright (c) 2000-2016 the FFmpeg developers
  built with gcc 5.4.0 (Ubuntu 5.4.0-6ubuntu1~16.04.2) 20160609
  configuration: --prefix=/home/jaroslav/ffmpeg_build --pkg-config-flags=--static --extra-cflags=-I/home/jaroslav/ffmpeg_build/include --extra-ldflags=-L/home/jaroslav/ffmpeg_build/lib --bindir=/home/jaroslav/bin --enable-gpl --enable-libass --enable-libfdk-aac --enable-libfreetype --enable-libmp3lame --enable-libopus --enable-libtheora --enable-libvorbis --enable-libvpx --enable-libx264 --enable-libx265 --enable-nvenc --enable-libmfx --enable-libxvid --enable-libgsm --enable-libopencore-amrnb --enable-version3 --enable-nonfree
  libavutil      55. 35.100 / 55. 35.100
  libavcodec     57. 66.101 / 57. 66.101
  libavformat    57. 57.100 / 57. 57.100
  libavdevice    57.  2.100 / 57.  2.100
  libavfilter     6. 66.100 /  6. 66.100
  libswscale      4.  3.100 /  4.  3.100
  libswresample   2.  4.100 /  2.  4.100
  libpostproc    54.  2.100 / 54.  2.100
Input #0, yuv4mpegpipe, from 'Input/y4m/sintel.y4m':
  Duration: 00:00:20.83, start: 0.000000, bitrate: 2057307 kb/s
    Stream #0:0: Video: rawvideo (I420 / 0x30323449), yuv420p(progressive), 4096x1744, SAR 1:1 DAR 256:109, 24 fps, 24 tbr, 24 tbn, 24 tbc
[libx264 @ 0x2a011c0] using SAR=1/1
[libx264 @ 0x2a011c0] DPB size (16 frames, 446464 mbs) > level limit (6 frames, 184320 mbs)
[libx264 @ 0x2a011c0] using cpu capabilities: MMX2 SSE2Fast SSSE3 SSE4.2 AVX FMA3 AVX2 LZCNT BMI2
[libx264 @ 0x2a011c0] profile High, level 5.2
[libx264 @ 0x2a011c0] 264 - core 148 - H.264/MPEG-4 AVC codec - Copyleft 2003-2016 - http://www.videolan.org/x264.html - options: cabac=1 ref=16 deblock=1:0:0 analyse=0x3:0x133 me=umh subme=10 psy=1 psy_rd=1.00:0.00 mixed_ref=1 me_range=24 chroma_me=1 trellis=2 8x8dct=1 cqm=0 deadzone=21,11 fast_pskip=1 chroma_qp_offset=-2 threads=6 lookahead_threads=1 sliced_threads=0 nr=0 decimate=1 interlaced=0 bluray_compat=0 constrained_intra=0 bframes=8 b_pyramid=2 b_adapt=2 b_bias=0 direct=3 weightb=1 open_gop=0 weightp=2 keyint=250 keyint_min=24 scenecut=40 intra_refresh=0 rc_lookahead=60 rc=abr mbtree=1 bitrate=14000 ratetol=1.0 qcomp=0.60 qpmin=0 qpmax=69 qpstep=4 ip_ratio=1.40 aq=1:1.00
Output #0, matroska, to 'Output/x264/encoded/sintelveryslow14000k.mkv':
  Metadata:
    encoder         : Lavf57.57.100
    Stream #0:0: Video: h264 (libx264) (H264 / 0x34363248), yuv420p, 4096x1744 [SAR 1:1 DAR 256:109], q=-1--1, 14000 kb/s, 24 fps, 1k tbn, 24 tbc
    Metadata:
      encoder         : Lavc57.66.101 libx264
    Side data:
      cpb: bitrate max/min/avg: 0/0/14000000 buffer size: 0 vbv_delay: -1
Stream mapping:
  Stream #0:0 -> #0:0 (rawvideo (native) -> h264 (libx264))
Press [q] to stop, [?] for help
frame=   11 fps=0.0 q=0.0 size=       0kB time=00:00:00.00 bitrate=N/A speed=   0x    frame=   16 fps= 15 q=0.0 size=       0kB time=00:00:00.00 bitrate=N/A speed=   0x    frame=   24 fps= 15 q=0.0 size=       0kB time=00:00:00.00 bitrate=N/A speed=   0x    frame=   30 fps= 14 q=0.0 size=       0kB time=00:00:00.00 bitrate=N/A speed=   0x    frame=   38 fps= 13 q=0.0 size=       0kB time=00:00:00.00 bitrate=N/A speed=   0x    frame=   46 fps= 14 q=0.0 size=       0kB time=00:00:00.00 bitrate=N/A speed=   0x    frame=   55 fps= 14 q=0.0 size=       0kB time=00:00:00.00 bitrate=N/A speed=   0x    frame=   64 fps= 14 q=0.0 size=       0kB time=00:00:00.00 bitrate=N/A speed=   0x    frame=   68 fps= 10 q=0.0 size=       0kB time=00:00:00.00 bitrate=N/A speed=   0x    frame=   72 fps=3.2 q=0.0 size=       0kB time=00:00:00.00 bitrate=N/A speed=   0x    frame=   76 fps=3.2 q=21.0 size=       1kB time=-00:00:00.08 bitrate=N/A speed=N/A    frame=   78 fps=2.9 q=31.0 size=       1kB time=00:00:00.00 bitrate=5888.0kbits/s speed=3.77e-05x    frame=   79 fps=2.9 q=27.0 size=       1kB time=00:00:00.04 bitrate= 136.9kbits/s speed=0.00157x    frame=   80 fps=2.8 q=38.0 size=       1kB time=00:00:00.08 bitrate=  70.1kbits/s speed=0.00292x    frame=   81 fps=2.7 q=33.0 size=       1kB time=00:00:00.12 bitrate=  46.7kbits/s speed=0.00424x    frame=   82 fps=2.7 q=35.0 size=       1kB time=00:00:00.16 bitrate=  35.0kbits/s speed=0.00543x    frame=   83 fps=2.6 q=39.0 size=       1kB time=00:00:00.20 bitrate=  28.2kbits/s speed=0.00662x    frame=   85 fps=2.6 q=39.0 size=       1kB time=00:00:00.29 bitrate=  20.1kbits/s speed=0.00895x    frame=   87 fps=2.6 q=39.0 size=       1kB time=00:00:00.37 bitrate=  15.7kbits/s speed=0.0112x    frame=   88 fps=2.6 q=39.0 size=       1kB time=00:00:00.41 bitrate=  14.1kbits/s speed=0.0121x    frame=   89 fps=2.5 q=38.0 size=       1kB time=00:00:00.45 bitrate=  12.8kbits/s speed=0.013x    frame=   90 fps=2.5 q=38.0 size=       1kB time=00:00:00.50 bitrate=  11.8kbits/s speed=0.014x    frame=   91 fps=2.4 q=38.0 size=       1kB time=00:00:00.54 bitrate=  10.8kbits/s speed=0.0146x    frame=   92 fps=2.4 q=38.0 size=       1kB time=00:00:00.58 bitrate=  10.1kbits/s speed=0.0153x    frame=   93 fps=2.3 q=38.0 size=       1kB time=00:00:00.62 bitrate=   9.4kbits/s speed=0.0156x    frame=   94 fps=2.3 q=38.0 size=       1kB time=00:00:00.66 bitrate=   8.8kbits/s speed=0.0164x    frame=   96 fps=2.3 q=38.0 size=       1kB time=00:00:00.75 bitrate=   7.8kbits/s speed=0.0177x    frame=   97 fps=2.2 q=38.0 size=       1kB time=00:00:00.79 bitrate=   7.4kbits/s speed=0.0178x    frame=   98 fps=2.2 q=37.0 size=       1kB time=00:00:00.83 bitrate=   7.1kbits/s speed=0.0184x    frame=   99 fps=2.1 q=37.0 size=       1kB time=00:00:00.87 bitrate=   6.7kbits/s speed=0.0187x    frame=  100 fps=2.1 q=37.0 size=       1kB time=00:00:00.91 bitrate=   6.4kbits/s speed=0.0193x    frame=  101 fps=2.0 q=37.0 size=       1kB time=00:00:00.95 bitrate=   6.1kbits/s speed=0.0192x    frame=  102 fps=2.0 q=37.0 size=       1kB time=00:00:01.00 bitrate=   5.9kbits/s speed=0.0198x    frame=  104 fps=2.0 q=37.0 size=       1kB time=00:00:01.08 bitrate=   5.4kbits/s speed=0.021x    frame=  106 fps=2.0 q=37.0 size=       1kB time=00:00:01.16 bitrate=   5.0kbits/s speed=0.0218x    frame=  107 fps=1.9 q=36.0 size=       1kB time=00:00:01.20 bitrate=   4.9kbits/s speed=0.0215x    frame=  108 fps=1.9 q=36.0 size=       1kB time=00:00:01.25 bitrate=   4.7kbits/s speed=0.0219x    frame=  109 fps=1.9 q=36.0 size=       1kB time=00:00:01.29 bitrate=   4.6kbits/s speed=0.0224x    frame=  110 fps=1.9 q=36.0 size=       1kB time=00:00:01.33 bitrate=   4.4kbits/s speed=0.0225x    frame=  111 fps=1.8 q=36.0 size=       1kB time=00:00:01.37 bitrate=   4.3kbits/s speed=0.0227x    frame=  112 fps=1.8 q=36.0 size=       1kB time=00:00:01.41 bitrate=   4.2kbits/s speed=0.0229x    frame=  113 fps=1.8 q=36.0 size=       1kB time=00:00:01.45 bitrate=   4.0kbits/s speed=0.0232x    frame=  114 fps=1.8 q=36.0 size=       1kB time=00:00:01.50 bitrate=   3.9kbits/s speed=0.0234x    frame=  115 fps=1.8 q=36.0 size=       1kB time=00:00:01.54 bitrate=   3.8kbits/s speed=0.0237x    frame=  116 fps=1.8 q=36.0 size=       1kB time=00:00:01.58 bitrate=   3.7kbits/s speed=0.0241x    frame=  117 fps=1.7 q=36.0 size=       1kB time=00:00:01.62 bitrate=   3.6kbits/s speed=0.0243x    frame=  118 fps=1.7 q=35.0 size=       1kB time=00:00:01.66 bitrate=   3.5kbits/s speed=0.0247x    frame=  119 fps=1.7 q=35.0 size=       1kB time=00:00:01.70 bitrate=   3.4kbits/s speed=0.0249x    frame=  120 fps=1.7 q=35.0 size=       1kB time=00:00:01.75 bitrate=   3.4kbits/s speed=0.0252x    frame=  121 fps=1.7 q=35.0 size=       1kB time=00:00:01.79 bitrate=   3.3kbits/s speed=0.0254x    frame=  122 fps=1.7 q=35.0 size=       1kB time=00:00:01.83 bitrate=   3.2kbits/s speed=0.0257x    frame=  123 fps=1.7 q=35.0 size=       1kB time=00:00:01.87 bitrate=   3.1kbits/s speed=0.026x    frame=  124 fps=1.7 q=35.0 size=       1kB time=00:00:01.91 bitrate=   3.1kbits/s speed=0.026x    frame=  125 fps=1.7 q=35.0 size=       1kB time=00:00:01.95 bitrate=   3.0kbits/s speed=0.0263x    frame=  126 fps=1.7 q=35.0 size=       1kB time=00:00:02.00 bitrate=   2.9kbits/s speed=0.0266x    frame=  127 fps=1.6 q=35.0 size=       1kB time=00:00:02.04 bitrate=   2.9kbits/s speed=0.0264x    frame=  128 fps=1.6 q=35.0 size=       1kB time=00:00:02.08 bitrate=   2.8kbits/s speed=0.0266x    frame=  129 fps=1.6 q=35.0 size=       1kB time=00:00:02.12 bitrate=   2.8kbits/s speed=0.0267x    frame=  130 fps=1.6 q=35.0 size=       1kB time=00:00:02.16 bitrate=   2.7kbits/s speed=0.0267x    frame=  131 fps=1.6 q=35.0 size=       1kB time=00:00:02.20 bitrate=   2.7kbits/s speed=0.0269x    frame=  132 fps=1.6 q=35.0 size=       1kB time=00:00:02.25 bitrate=   2.6kbits/s speed=0.0268x    frame=  133 fps=1.6 q=35.0 size=       1kB time=00:00:02.29 bitrate=   2.6kbits/s speed=0.0269x    frame=  134 fps=1.5 q=35.0 size=    5153kB time=00:00:02.33 bitrate=18084.9kbits/s speed=0.0269x    frame=  135 fps=1.5 q=34.0 size=    5153kB time=00:00:02.37 bitrate=17765.3kbits/s speed=0.027x    frame=  136 fps=1.5 q=34.0 size=    5153kB time=00:00:02.41 bitrate=17456.7kbits/s speed=0.027x    frame=  137 fps=1.5 q=34.0 size=    5153kB time=00:00:02.45 bitrate=17165.6kbits/s speed=0.0271x    frame=  138 fps=1.5 q=34.0 size=    5153kB time=00:00:02.50 bitrate=16877.4kbits/s speed=0.0273x    frame=  139 fps=1.5 q=34.0 size=    5153kB time=00:00:02.54 bitrate=16598.6kbits/s speed=0.0275x    frame=  140 fps=1.5 q=34.0 size=    5153kB time=00:00:02.58 bitrate=16335.2kbits/s speed=0.0276x    frame=  141 fps=1.5 q=34.0 size=    5153kB time=00:00:02.62 bitrate=16074.0kbits/s speed=0.0277x    frame=  142 fps=1.4 q=34.0 size=    5153kB time=00:00:02.66 bitrate=15820.9kbits/s speed=0.0271x    frame=  143 fps=1.4 q=34.0 size=    5153kB time=00:00:02.70 bitrate=15581.5kbits/s speed=0.0273x    frame=  144 fps=1.4 q=34.0 size=    5153kB time=00:00:02.75 bitrate=15343.6kbits/s speed=0.0275x    frame=  145 fps=1.4 q=34.0 size=    5153kB time=00:00:02.79 bitrate=15112.9kbits/s speed=0.0277x    frame=  146 fps=1.4 q=34.0 size=    5153kB time=00:00:02.83 bitrate=14894.2kbits/s speed=0.0279x    frame=  147 fps=1.4 q=34.0 size=    5153kB time=00:00:02.87 bitrate=14676.7kbits/s speed=0.0279x    frame=  148 fps=1.4 q=34.0 size=    5153kB time=00:00:02.91 bitrate=14465.5kbits/s speed=0.0276x    frame=  149 fps=1.4 q=34.0 size=    5153kB time=00:00:02.95 bitrate=14265.0kbits/s speed=0.0277x    frame=  150 fps=1.4 q=34.0 size=    5153kB time=00:00:03.00 bitrate=14065.4kbits/s speed=0.0278x    frame=  151 fps=1.4 q=34.0 size=    5153kB time=00:00:03.04 bitrate=13871.3kbits/s speed=0.028x    frame=  152 fps=1.4 q=33.0 size=    5153kB time=00:00:03.08 bitrate=13686.9kbits/s speed=0.0282x    frame=  153 fps=1.4 q=33.0 size=    5153kB time=00:00:03.12 bitrate=13503.0kbits/s speed=0.0284x    frame=  154 fps=1.4 q=33.0 size=    5153kB time=00:00:03.16 bitrate=13323.9kbits/s speed=0.028x    frame=  155 fps=1.4 q=33.0 size=    5153kB time=00:00:03.20 bitrate=13153.7kbits/s speed=0.028x    frame=  156 fps=1.4 q=33.0 size=    5153kB time=00:00:03.25 bitrate=12983.8kbits/s speed=0.0282x    frame=  157 fps=1.4 q=33.0 size=    5153kB time=00:00:03.29 bitrate=12818.2kbits/s speed=0.0284x    frame=  158 fps=1.3 q=33.0 size=    5153kB time=00:00:03.33 bitrate=12660.5kbits/s speed=0.0284x    frame=  159 fps=1.3 q=33.0 size=    5153kB time=00:00:03.37 bitrate=12503.0kbits/s speed=0.0285x    frame=  160 fps=1.3 q=33.0 size=    5153kB time=00:00:03.41 bitrate=12349.4kbits/s speed=0.0284x    frame=  161 fps=1.3 q=33.0 size=    5153kB time=00:00:03.45 bitrate=12203.0kbits/s speed=0.0283x    frame=  162 fps=1.3 q=33.0 size=    5153kB time=00:00:03.50 bitrate=12056.6kbits/s speed=0.0285x    frame=  163 fps=1.3 q=33.0 size=    5153kB time=00:00:03.54 bitrate=11913.7kbits/s speed=0.0285x    frame=  164 fps=1.3 q=33.0 size=    5153kB time=00:00:03.58 bitrate=11777.4kbits/s speed=0.0287x    frame=  165 fps=1.3 q=33.0 size=    5153kB time=00:00:03.62 bitrate=11641.0kbits/s speed=0.0288x    frame=  166 fps=1.3 q=33.0 size=    5153kB time=00:00:03.66 bitrate=11507.7kbits/s speed=0.029x    frame=  167 fps=1.3 q=33.0 size=    5153kB time=00:00:03.70 bitrate=11380.5kbits/s speed=0.0288x    frame=  168 fps=1.3 q=33.0 size=    5153kB time=00:00:03.75 bitrate=11253.1kbits/s speed=0.029x    frame=  169 fps=1.3 q=33.0 size=    5153kB time=00:00:03.79 bitrate=11128.5kbits/s speed=0.029x    frame=  170 fps=1.3 q=33.0 size=    5153kB time=00:00:03.83 bitrate=11009.5kbits/s speed=0.0291x    frame=  171 fps=1.3 q=33.0 size=    5153kB time=00:00:03.87 bitrate=10890.2kbits/s speed=0.0292x    frame=  172 fps=1.3 q=32.0 size=    5153kB time=00:00:03.91 bitrate=10773.4kbits/s speed=0.029x    frame=  173 fps=1.3 q=32.0 size=    5153kB time=00:00:03.95 bitrate=10661.8kbits/s speed=0.0292x    frame=  175 fps=1.3 q=32.0 size=    5153kB time=00:00:04.04 bitrate=10440.3kbits/s speed=0.0296x    frame=  176 fps=1.3 q=32.0 size=    5153kB time=00:00:04.08 bitrate=10335.5kbits/s speed=0.0296x    frame=  177 fps=1.3 q=32.0 size=    5153kB time=00:00:04.12 bitrate=10230.3kbits/s speed=0.0297x    frame=  178 fps=1.3 q=32.0 size=    5153kB time=00:00:04.16 bitrate=10127.2kbits/s speed=0.0293x    frame=  179 fps=1.3 q=32.0 size=    5153kB time=00:00:04.20 bitrate=10028.6kbits/s speed=0.0295x    frame=  181 fps=1.3 q=32.0 size=    5153kB time=00:00:04.29 bitrate=9832.3kbits/s speed=0.0299x    frame=  182 fps=1.3 q=32.0 size=    5153kB time=00:00:04.33 bitrate=9739.3kbits/s speed=0.0298x    frame=  183 fps=1.3 q=32.0 size=    5153kB time=00:00:04.37 bitrate=9645.9kbits/s speed=0.03x    frame=  184 fps=1.3 q=32.0 size=    5153kB time=00:00:04.41 bitrate=9554.2kbits/s speed=0.03x    frame=  185 fps=1.2 q=32.0 size=    5153kB time=00:00:04.45 bitrate=9466.3kbits/s speed=0.03x    frame=  186 fps=1.2 q=32.0 size=    5153kB time=00:00:04.50 bitrate=9378.0kbits/s speed=0.0301x    frame=  187 fps=1.2 q=32.0 size=    5153kB time=00:00:04.54 bitrate=9291.3kbits/s speed=0.0302x    frame=  188 fps=1.2 q=32.0 size=    5153kB time=00:00:04.58 bitrate=9208.2kbits/s speed=0.0302x    frame=  189 fps=1.2 q=32.0 size=    5153kB time=00:00:04.62 bitrate=9124.6kbits/s speed=0.0304x    frame=  190 fps=1.2 q=32.0 size=    5153kB time=00:00:04.66 bitrate=9042.5kbits/s speed=0.0305x    frame=  191 fps=1.2 q=32.0 size=    5153kB time=00:00:04.70 bitrate=8963.7kbits/s speed=0.0306x    frame=  192 fps=1.2 q=32.0 size=    5153kB time=00:00:04.75 bitrate=8884.5kbits/s speed=0.03x    frame=  194 fps=1.2 q=32.0 size=    5153kB time=00:00:04.83 bitrate=8732.0kbits/s speed=0.0303x    frame=  195 fps=1.2 q=32.0 size=    5153kB time=00:00:04.87 bitrate=8656.7kbits/s speed=0.0304x    frame=  196 fps=1.2 q=32.0 size=    5153kB time=00:00:04.91 bitrate=8582.8kbits/s speed=0.0305x    frame=  197 fps=1.2 q=32.0 size=    5153kB time=00:00:04.95 bitrate=8511.8kbits/s speed=0.0306x    frame=  198 fps=1.2 q=32.0 size=    5153kB time=00:00:05.00 bitrate=8440.4kbits/s speed=0.0304x    frame=  199 fps=1.2 q=32.0 size=    5153kB time=00:00:05.04 bitrate=8370.1kbits/s speed=0.0303x    frame=  200 fps=1.2 q=32.0 size=    5153kB time=00:00:05.08 bitrate=8302.6kbits/s speed=0.0303x    frame=  201 fps=1.2 q=32.0 size=    5153kB time=00:00:05.12 bitrate=8234.5kbits/s speed=0.0303x    frame=  202 fps=1.2 q=32.0 size=    5153kB time=00:00:05.16 bitrate=8167.6kbits/s speed=0.0304x    frame=  203 fps=1.2 q=32.0 size=    5153kB time=00:00:05.20 bitrate=8103.3kbits/s speed=0.0304x    frame=  204 fps=1.2 q=32.0 size=    5153kB time=00:00:05.25 bitrate=8038.5kbits/s speed=0.0303x    frame=  205 fps=1.2 q=32.0 size=    5153kB time=00:00:05.29 bitrate=7974.7kbits/s speed=0.0302x    frame=  206 fps=1.2 q=32.0 size=    5153kB time=00:00:05.33 bitrate=7913.4kbits/s speed=0.0301x    frame=  207 fps=1.2 q=31.0 size=    5153kB time=00:00:05.37 bitrate=7851.6kbits/s speed=0.0302x    frame=  208 fps=1.2 q=31.0 size=    5153kB time=00:00:05.41 bitrate=7790.7kbits/s speed=0.0302x    frame=  209 fps=1.2 q=31.0 size=    5153kB time=00:00:05.45 bitrate=7732.2kbits/s speed=0.0303x    frame=  210 fps=1.2 q=31.0 size=    5153kB time=00:00:05.50 bitrate=7673.2kbits/s speed=0.0303x    frame=  211 fps=1.2 q=31.0 size=    5153kB time=00:00:05.54 bitrate=7615.1kbits/s speed=0.0302x    frame=  212 fps=1.1 q=31.0 size=    5153kB time=00:00:05.58 bitrate=7559.1kbits/s speed=0.0301x    frame=  213 fps=1.1 q=31.0 size=    5153kB time=00:00:05.62 bitrate=7502.7kbits/s speed=0.0301x    frame=  214 fps=1.1 q=31.0 size=    5153kB time=00:00:05.66 bitrate=7447.1kbits/s speed=0.0303x    frame=  215 fps=1.1 q=31.0 size=    5153kB time=00:00:05.70 bitrate=7393.6kbits/s speed=0.0303x    frame=  216 fps=1.1 q=31.0 size=    5153kB time=00:00:05.75 bitrate=7339.6kbits/s speed=0.0304x    frame=  217 fps=1.1 q=31.0 size=    5153kB time=00:00:05.79 bitrate=7286.4kbits/s speed=0.0306x    frame=  218 fps=1.1 q=31.0 size=    5153kB time=00:00:05.83 bitrate=7235.2kbits/s speed=0.0305x    frame=  219 fps=1.1 q=31.0 size=    5153kB time=00:00:05.87 bitrate=7183.5kbits/s speed=0.0305x    frame=  220 fps=1.1 q=31.0 size=    5153kB time=00:00:05.91 bitrate=7132.5kbits/s speed=0.0306x    frame=  221 fps=1.1 q=31.0 size=    5153kB time=00:00:05.95 bitrate=7083.4kbits/s speed=0.0305x    frame=  222 fps=1.1 q=31.0 size=    5153kB time=00:00:06.00 bitrate=7033.9kbits/s speed=0.0307x    frame=  223 fps=1.1 q=31.0 size=    5153kB time=00:00:06.04 bitrate=6985.0kbits/s speed=0.0307x    frame=  224 fps=1.1 q=31.0 size=    5153kB time=00:00:06.08 bitrate=6937.9kbits/s speed=0.0308x    frame=  225 fps=1.1 q=31.0 size=    5153kB time=00:00:06.12 bitrate=6890.3kbits/s speed=0.0309x    frame=  226 fps=1.1 q=31.0 size=   10295kB time=00:00:06.16 bitrate=13673.6kbits/s speed=0.0309x    frame=  227 fps=1.1 q=31.0 size=   10295kB time=00:00:06.20 bitrate=13583.3kbits/s speed=0.0308x    frame=  229 fps=1.1 q=31.0 size=   10295kB time=00:00:06.29 bitrate=13402.0kbits/s speed=0.031x    frame=  230 fps=1.1 q=31.0 size=   10295kB time=00:00:06.33 bitrate=13315.3kbits/s speed=0.0311x    frame=  233 fps=1.1 q=31.0 size=   10295kB time=00:00:06.45 bitrate=13057.6kbits/s speed=0.0309x    frame=  234 fps=1.1 q=31.0 size=   10295kB time=00:00:06.50 bitrate=12973.2kbits/s speed=0.0311x    frame=  235 fps=1.1 q=31.0 size=   10295kB time=00:00:06.54 bitrate=12890.0kbits/s speed=0.0312x    frame=  236 fps=1.1 q=31.0 size=   10295kB time=00:00:06.58 bitrate=12809.7kbits/s speed=0.0312x    frame=  237 fps=1.1 q=31.0 size=   10295kB time=00:00:06.62 bitrate=12728.5kbits/s speed=0.0313x    frame=  238 fps=1.1 q=31.0 size=   10295kB time=00:00:06.66 bitrate=12648.3kbits/s speed=0.0313x    frame=  239 fps=1.1 q=31.0 size=   10295kB time=00:00:06.70 bitrate=12571.0kbits/s speed=0.0311x    frame=  240 fps=1.1 q=31.0 size=   10295kB time=00:00:06.75 bitrate=12492.8kbits/s speed=0.0312x    frame=  241 fps=1.1 q=31.0 size=   10295kB time=00:00:06.79 bitrate=12415.6kbits/s speed=0.0313x    frame=  242 fps=1.1 q=31.0 size=   10295kB time=00:00:06.83 bitrate=12341.1kbits/s speed=0.0314x    frame=  243 fps=1.1 q=31.0 size=   10295kB time=00:00:06.87 bitrate=12265.7kbits/s speed=0.0315x    frame=  245 fps=1.1 q=31.0 size=   10295kB time=00:00:06.95 bitrate=12119.4kbits/s speed=0.0315x    frame=  246 fps=1.1 q=31.0 size=   10295kB time=00:00:07.00 bitrate=12046.7kbits/s speed=0.0314x    frame=  247 fps=1.1 q=31.0 size=   10295kB time=00:00:07.04 bitrate=11974.9kbits/s speed=0.0315x    frame=  249 fps=1.1 q=30.0 size=   10295kB time=00:00:07.12 bitrate=11835.4kbits/s speed=0.0317x    frame=  250 fps=1.1 q=30.0 size=   10295kB time=00:00:07.16 bitrate=11766.0kbits/s speed=0.0317x    frame=  251 fps=1.1 q=30.0 size=   10295kB time=00:00:07.20 bitrate=11699.1kbits/s speed=0.0317x    frame=  252 fps=1.1 q=30.0 size=   10295kB time=00:00:07.25 bitrate=11631.4kbits/s speed=0.0317x    frame=  253 fps=1.1 q=30.0 size=   10295kB time=00:00:07.29 bitrate=11564.4kbits/s speed=0.0317x    frame=  254 fps=1.1 q=30.0 size=   10295kB time=00:00:07.33 bitrate=11499.7kbits/s speed=0.0317x    frame=  255 fps=1.1 q=30.0 size=   10295kB time=00:00:07.37 bitrate=11434.2kbits/s speed=0.0318x    frame=  256 fps=1.1 q=30.0 size=   10295kB time=00:00:07.41 bitrate=11369.5kbits/s speed=0.0319x    frame=  257 fps=1.1 q=30.0 size=   10295kB time=00:00:07.45 bitrate=11307.0kbits/s speed=0.0319x    frame=  258 fps=1.1 q=30.0 size=   10295kB time=00:00:07.50 bitrate=11243.7kbits/s speed=0.0319x    frame=  259 fps=1.1 q=30.0 size=   10295kB time=00:00:07.54 bitrate=11181.1kbits/s speed=0.032x    frame=  260 fps=1.1 q=30.0 size=   10295kB time=00:00:07.58 bitrate=11120.6kbits/s speed=0.0317x    frame=  261 fps=1.1 q=30.0 size=   10295kB time=00:00:07.62 bitrate=11059.4kbits/s speed=0.0317x    frame=  263 fps=1.1 q=30.0 size=   10295kB time=00:00:07.70 bitrate=10940.3kbits/s speed=0.032x    frame=  265 fps=1.1 q=30.0 size=   10295kB time=00:00:07.79 bitrate=10822.4kbits/s speed=0.0322x    frame=  266 fps=1.1 q=30.0 size=   10295kB time=00:00:07.83 bitrate=10765.8kbits/s speed=0.0323x    frame=  267 fps=1.1 q=30.0 size=   10295kB time=00:00:07.87 bitrate=10708.3kbits/s speed=0.0319x    frame=  268 fps=1.1 q=30.0 size=   10295kB time=00:00:07.91 bitrate=10651.5kbits/s speed=0.032x    frame=  270 fps=1.1 q=30.0 size=   10295kB time=00:00:08.00 bitrate=10541.1kbits/s speed=0.0323x    frame=  271 fps=1.1 q=30.0 size=   10295kB time=00:00:08.04 bitrate=10486.0kbits/s speed=0.0324x    frame=  272 fps=1.1 q=30.0 size=   10295kB time=00:00:08.08 bitrate=10432.8kbits/s speed=0.0324x    frame=  273 fps=1.1 q=30.0 size=   10295kB time=00:00:08.12 bitrate=10378.9kbits/s speed=0.0323x    frame=  274 fps=1.1 q=30.0 size=   10295kB time=00:00:08.16 bitrate=10325.5kbits/s speed=0.0323x    frame=  275 fps=1.1 q=30.0 size=   10295kB time=00:00:08.20 bitrate=10274.0kbits/s speed=0.0322x    frame=  276 fps=1.1 q=30.0 size=   10295kB time=00:00:08.25 bitrate=10221.7kbits/s speed=0.0323x    frame=  277 fps=1.1 q=30.0 size=   10295kB time=00:00:08.29 bitrate=10169.9kbits/s speed=0.0323x    frame=  278 fps=1.1 q=30.0 size=   10295kB time=00:00:08.33 bitrate=10119.9kbits/s speed=0.0324x    frame=  279 fps=1.1 q=30.0 size=   10295kB time=00:00:08.37 bitrate=10069.1kbits/s speed=0.0324x    frame=  280 fps=1.1 q=30.0 size=   10295kB time=00:00:08.41 bitrate=10018.9kbits/s speed=0.0325x    frame=  281 fps=1.1 q=30.0 size=   10295kB time=00:00:08.45 bitrate=9970.3kbits/s speed=0.0324x    frame=  282 fps=1.1 q=30.0 size=   10295kB time=00:00:08.50 bitrate=9921.1kbits/s speed=0.0325x    frame=  284 fps=1.1 q=30.0 size=   10295kB time=00:00:08.58 bitrate=9825.1kbits/s speed=0.0324x    frame=  287 fps=1.1 q=30.0 size=   10295kB time=00:00:08.70 bitrate=9684.1kbits/s speed=0.0327x    frame=  288 fps=1.1 q=30.0 size=   10295kB time=00:00:08.75 bitrate=9637.6kbits/s speed=0.0327x    frame=  289 fps=1.1 q=30.0 size=   10295kB time=00:00:08.79 bitrate=9591.6kbits/s speed=0.0326x    frame=  292 fps=1.1 q=30.0 size=   10295kB time=00:00:08.91 bitrate=9457.2kbits/s speed=0.0327x    frame=  294 fps=1.1 q=30.0 size=   10295kB time=00:00:09.00 bitrate=9370.0kbits/s speed=0.0329x    frame=  295 fps=1.1 q=30.0 size=   10295kB time=00:00:09.04 bitrate=9326.4kbits/s speed=0.0327x    frame=  297 fps=1.1 q=30.0 size=   10295kB time=00:00:09.12 bitrate=9241.6kbits/s speed=0.0329x    frame=  298 fps=1.1 q=30.0 size=   10295kB time=00:00:09.16 bitrate=9199.3kbits/s speed=0.0327x    frame=  299 fps=1.1 q=30.0 size=   10295kB time=00:00:09.20 bitrate=9158.3kbits/s speed=0.0328x    frame=  301 fps=1.1 q=30.0 size=   10295kB time=00:00:09.29 bitrate=9075.5kbits/s speed=0.033x    frame=  302 fps=1.1 q=30.0 size=   10295kB time=00:00:09.33 bitrate=9035.7kbits/s speed=0.033x    frame=  303 fps=1.1 q=30.0 size=   10295kB time=00:00:09.37 bitrate=8995.2kbits/s speed=0.033x    frame=  304 fps=1.1 q=30.0 size=   10295kB time=00:00:09.41 bitrate=8955.1kbits/s speed=0.033x    frame=  305 fps=1.1 q=30.0 size=   10295kB time=00:00:09.45 bitrate=8916.3kbits/s speed=0.0331x    frame=  308 fps=1.1 q=30.0 size=   10295kB time=00:00:09.58 bitrate=8800.0kbits/s speed=0.0334x    frame=  309 fps=1.1 q=30.0 size=   10295kB time=00:00:09.62 bitrate=8761.6kbits/s speed=0.033x    frame=  311 fps=1.1 q=30.0 size=   15417kB time=00:00:09.70 bitrate=13008.0kbits/s speed=0.0332x    frame=  312 fps=1.1 q=30.0 size=   15417kB time=00:00:09.75 bitrate=12952.0kbits/s speed=0.0333x    frame=  313 fps=1.1 q=30.0 size=   15417kB time=00:00:09.79 bitrate=12896.5kbits/s speed=0.0334x    frame=  315 fps=1.1 q=29.0 size=   15417kB time=00:00:09.87 bitrate=12788.1kbits/s speed=0.0335x    frame=  316 fps=1.1 q=29.0 size=   15417kB time=00:00:09.91 bitrate=12733.9kbits/s speed=0.0335x    frame=  317 fps=1.1 q=29.0 size=   15417kB time=00:00:09.95 bitrate=12681.5kbits/s speed=0.0336x    frame=  318 fps=1.1 q=29.0 size=   15417kB time=00:00:10.00 bitrate=12628.2kbits/s speed=0.0336x    frame=  320 fps=1.1 q=29.0 size=   15417kB time=00:00:10.08 bitrate=12524.3kbits/s speed=0.0337x    frame=  321 fps=1.1 q=27.0 size=   15417kB time=00:00:10.12 bitrate=12472.3kbits/s speed=0.0336x    frame=  322 fps=1.1 q=29.0 size=   15417kB time=00:00:10.16 bitrate=12420.8kbits/s speed=0.0337x    frame=  324 fps=1.1 q=29.0 size=   15417kB time=00:00:10.25 bitrate=12320.3kbits/s speed=0.0337x    frame=  326 fps=1.1 q=29.0 size=   16227kB time=00:00:10.33 bitrate=12863.3kbits/s speed=0.0339x    frame=  332 fps=1.1 q=29.0 size=   16227kB time=00:00:10.58 bitrate=12559.5kbits/s speed=0.0345x    frame=  335 fps=1.1 q=29.0 size=   16227kB time=00:00:10.70 bitrate=12412.9kbits/s speed=0.0349x    frame=  336 fps=1.1 q=27.0 size=   16227kB time=00:00:10.75 bitrate=12364.4kbits/s speed=0.035x    frame=  338 fps=1.1 q=29.0 size=   16227kB time=00:00:10.83 bitrate=12269.6kbits/s speed=0.0351x    frame=  340 fps=1.1 q=29.0 size=   16227kB time=00:00:10.91 bitrate=12175.2kbits/s speed=0.0353x    frame=  343 fps=1.1 q=29.0 size=   16227kB time=00:00:11.04 bitrate=12037.4kbits/s speed=0.0355x    frame=  344 fps=1.1 q=29.0 size=   16227kB time=00:00:11.08 bitrate=11992.9kbits/s speed=0.0355x    frame=  346 fps=1.1 q=29.0 size=   16227kB time=00:00:11.16 bitrate=11902.7kbits/s speed=0.0355x    frame=  348 fps=1.1 q=29.0 size=   16227kB time=00:00:11.25 bitrate=11814.9kbits/s speed=0.0357x    frame=  349 fps=1.1 q=29.0 size=   16227kB time=00:00:11.29 bitrate=11770.9kbits/s speed=0.0357x    frame=  350 fps=1.1 q=29.0 size=   16227kB time=00:00:11.33 bitrate=11728.4kbits/s speed=0.0357x    frame=  353 fps=1.1 q=29.0 size=   16227kB time=00:00:11.45 bitrate=11600.4kbits/s speed=0.0358x    frame=  354 fps=1.1 q=29.0 size=   16227kB time=00:00:11.50 bitrate=11558.1kbits/s speed=0.0358x    frame=  356 fps=1.1 q=29.0 size=   16227kB time=00:00:11.58 bitrate=11475.2kbits/s speed=0.036x    frame=  357 fps=1.1 q=29.0 size=   16227kB time=00:00:11.62 bitrate=11433.8kbits/s speed=0.036x    frame=  358 fps=1.1 q=29.0 size=   16227kB time=00:00:11.66 bitrate=11392.6kbits/s speed=0.036x    frame=  360 fps=1.1 q=29.0 size=   16227kB time=00:00:11.75 bitrate=11312.2kbits/s speed=0.0359x    frame=  361 fps=1.1 q=29.0 size=   16227kB time=00:00:11.79 bitrate=11271.9kbits/s speed=0.036x    frame=  362 fps=1.1 q=29.0 size=   16227kB time=00:00:11.83 bitrate=11232.8kbits/s speed=0.036x    frame=  364 fps=1.1 q=29.0 size=   16227kB time=00:00:11.91 bitrate=11153.7kbits/s speed=0.0361x    frame=  365 fps=1.1 q=29.0 size=   16227kB time=00:00:11.95 bitrate=11115.4kbits/s speed=0.0362x    frame=  367 fps=1.1 q=28.0 size=   16227kB time=00:00:12.04 bitrate=11037.9kbits/s speed=0.0364x    frame=  368 fps=1.1 q=28.0 size=   16227kB time=00:00:12.08 bitrate=11000.4kbits/s speed=0.0362x    frame=  370 fps=1.1 q=28.0 size=   16227kB time=00:00:12.16 bitrate=10924.5kbits/s speed=0.0364x    frame=  372 fps=1.1 q=28.0 size=   16227kB time=00:00:12.25 bitrate=10850.5kbits/s speed=0.0365x    frame=  374 fps=1.1 q=28.0 size=   16227kB time=00:00:12.33 bitrate=10777.5kbits/s speed=0.0366x    frame=  376 fps=1.1 q=28.0 size=   16227kB time=00:00:12.41 bitrate=10704.6kbits/s speed=0.0366x    frame=  378 fps=1.1 q=28.0 size=   16227kB time=00:00:12.50 bitrate=10633.5kbits/s speed=0.0368x    frame=  382 fps=1.1 q=28.0 size=   16227kB time=00:00:12.66 bitrate=10493.3kbits/s speed=0.0369x    frame=  386 fps=1.1 q=28.0 size=   16227kB time=00:00:12.83 bitrate=10357.6kbits/s speed=0.0373x    frame=  388 fps=1.1 q=28.0 size=   16227kB time=00:00:12.91 bitrate=10290.2kbits/s speed=0.0372x    frame=  393 fps=1.1 q=27.0 size=   16227kB time=00:00:13.12 bitrate=10127.2kbits/s speed=0.0376x    frame=  394 fps=1.1 q=27.0 size=   16227kB time=00:00:13.16 bitrate=10094.9kbits/s speed=0.0374x    frame=  399 fps=1.1 q=27.0 size=   16227kB time=00:00:13.37 bitrate=9937.9kbits/s speed=0.0378x    frame=  400 fps=1.1 q=27.0 size=   16227kB time=00:00:13.41 bitrate=9906.8kbits/s speed=0.0377x    frame=  404 fps=1.1 q=27.0 size=   16227kB time=00:00:13.58 bitrate=9785.7kbits/s speed=0.0381x    frame=  405 fps=1.1 q=27.0 size=   16227kB time=00:00:13.62 bitrate=9755.6kbits/s speed=0.0381x    frame=  406 fps=1.1 q=27.0 size=   16227kB time=00:00:13.66 bitrate=9725.6kbits/s speed=0.0382x    frame=  408 fps=1.1 q=27.0 size=   16227kB time=00:00:13.75 bitrate=9666.9kbits/s speed=0.0381x    frame=  413 fps=1.1 q=27.0 size=   16227kB time=00:00:13.95 bitrate=9522.8kbits/s speed=0.0384x    frame=  414 fps=1.1 q=27.0 size=   16227kB time=00:00:14.00 bitrate=9494.3kbits/s speed=0.0384x    frame=  419 fps=1.1 q=26.0 size=   16227kB time=00:00:14.20 bitrate=9355.3kbits/s speed=0.0386x    frame=  421 fps=1.1 q=27.0 size=   16227kB time=00:00:14.29 bitrate=9300.3kbits/s speed=0.0388x    frame=  425 fps=1.1 q=26.0 size=   16227kB time=00:00:14.45 bitrate=9193.5kbits/s speed=0.0389x    frame=  427 fps=1.1 q=26.0 size=   16227kB time=00:00:14.54 bitrate=9140.4kbits/s speed=0.039x    frame=  430 fps=1.2 q=26.0 size=   16227kB time=00:00:14.66 bitrate=9062.5kbits/s speed=0.0393x    frame=  431 fps=1.1 q=26.0 size=   16227kB time=00:00:14.70 bitrate=9037.3kbits/s speed=0.0392x    frame=  433 fps=1.2 q=26.0 size=   16227kB time=00:00:14.79 bitrate=8986.0kbits/s speed=0.0393x    frame=  437 fps=1.2 q=26.0 size=   21365kB time=00:00:14.95 bitrate=11700.1kbits/s speed=0.0396x    frame=  439 fps=1.1 q=26.0 size=   21365kB time=00:00:15.04 bitrate=11634.8kbits/s speed=0.0392x    frame=  441 fps=1.1 q=26.0 size=   21365kB time=00:00:15.12 bitrate=11570.9kbits/s speed=0.0393x    frame=  442 fps=1.1 q=26.0 size=   21365kB time=00:00:15.16 bitrate=11538.9kbits/s speed=0.0394x    frame=  444 fps=1.2 q=26.0 size=   21365kB time=00:00:15.25 bitrate=11476.1kbits/s speed=0.0396x    frame=  445 fps=1.1 q=26.0 size=   21365kB time=00:00:15.29 bitrate=11444.6kbits/s speed=0.0395x    frame=  446 fps=1.1 q=26.0 size=   21365kB time=00:00:15.33 bitrate=11414.0kbits/s speed=0.0393x    frame=  448 fps=1.1 q=26.0 size=   21365kB time=00:00:15.41 bitrate=11351.8kbits/s speed=0.0395x    frame=  449 fps=1.1 q=26.0 size=   21365kB time=00:00:15.45 bitrate=11321.7kbits/s speed=0.0394x    frame=  450 fps=1.1 q=26.0 size=   21365kB time=00:00:15.50 bitrate=11291.0kbits/s speed=0.0395x    frame=  452 fps=1.1 q=26.0 size=   21365kB time=00:00:15.58 bitrate=11230.9kbits/s speed=0.0394x    frame=  453 fps=1.1 q=26.0 size=   21365kB time=00:00:15.62 bitrate=11200.7kbits/s speed=0.0394x    frame=  455 fps=1.1 q=26.0 size=   21365kB time=00:00:15.70 bitrate=11141.5kbits/s speed=0.0394x    frame=  457 fps=1.1 q=26.0 size=   21365kB time=00:00:15.79 bitrate=11082.2kbits/s speed=0.0395x    frame=  459 fps=1.1 q=26.0 size=   21365kB time=00:00:15.87 bitrate=11024.3kbits/s speed=0.0394x    frame=  461 fps=1.1 q=25.0 size=   21365kB time=00:00:15.95 bitrate=10967.0kbits/s speed=0.0395x    frame=  464 fps=1.1 q=25.0 size=   21365kB time=00:00:16.08 bitrate=10881.7kbits/s speed=0.0394x    frame=  465 fps=1.1 q=25.0 size=   21365kB time=00:00:16.12 bitrate=10853.4kbits/s speed=0.0394x    frame=  467 fps=1.1 q=25.0 size=   21365kB time=00:00:16.20 bitrate=10797.8kbits/s speed=0.0396x    frame=  468 fps=1.1 q=25.0 size=   21365kB time=00:00:16.25 bitrate=10769.9kbits/s speed=0.0395x    frame=  470 fps=1.1 q=25.0 size=   21365kB time=00:00:16.33 bitrate=10715.2kbits/s speed=0.0396x    frame=  471 fps=1.1 q=25.0 size=   21365kB time=00:00:16.37 bitrate=10687.7kbits/s speed=0.0393x    frame=  473 fps=1.1 q=25.0 size=   21365kB time=00:00:16.45 bitrate=10633.8kbits/s speed=0.0394x    frame=  475 fps=1.1 q=26.0 size=   21365kB time=00:00:16.54 bitrate=10579.8kbits/s speed=0.0396x    frame=  476 fps=1.1 q=26.0 size=   21365kB time=00:00:16.58 bitrate=10553.7kbits/s speed=0.0395x    frame=  477 fps=1.1 q=26.0 size=   21365kB time=00:00:16.62 bitrate=10527.0kbits/s speed=0.0393x    frame=  478 fps=1.1 q=26.0 size=   21365kB time=00:00:16.66 bitrate=10500.5kbits/s speed=0.0394x    frame=  481 fps=1.1 q=26.0 size=   21365kB time=00:00:16.79 bitrate=10422.3kbits/s speed=0.0396x    frame=  482 fps=1.1 q=26.0 size=   21365kB time=00:00:16.83 bitrate=10396.9kbits/s speed=0.0395x    frame=  483 fps=1.1 q=26.0 size=   21365kB time=00:00:16.87 bitrate=10371.1kbits/s speed=0.0395x    frame=  485 fps=1.1 q=26.0 size=   21365kB time=00:00:16.95 bitrate=10320.3kbits/s speed=0.0395x    frame=  486 fps=1.1 q=26.0 size=   21365kB time=00:00:17.00 bitrate=10294.8kbits/s speed=0.0395x    frame=  489 fps=1.1 q=26.0 size=   21365kB time=00:00:17.12 bitrate=10219.7kbits/s speed=0.0395x    frame=  491 fps=1.1 q=26.0 size=   21365kB time=00:00:17.20 bitrate=10170.4kbits/s speed=0.0396x    frame=  494 fps=1.1 q=26.0 size=   21365kB time=00:00:17.33 bitrate=10097.0kbits/s speed=0.0394x    frame=  496 fps=1.1 q=26.0 size=   21365kB time=00:00:17.41 bitrate=10048.3kbits/s speed=0.0395x    frame=  497 fps=1.1 q=26.0 size=   21365kB time=00:00:17.45 bitrate=10024.7kbits/s speed=0.0396x    frame=  498 fps=1.1 q=26.0 size=   21365kB time=00:00:17.50 bitrate=10000.7kbits/s speed=0.0396x    frame=  500 fps=1.1 q=26.0 size=   21365kB time=00:00:17.58 bitrate=9953.5kbits/s speed=0.0396x    frame=  500 fps=1.0 q=-1.0 Lsize=   31629kB time=00:00:20.70 bitrate=12511.8kbits/s speed=0.0412x    
video:31624kB audio:0kB subtitle:0kB other streams:0kB global headers:0kB muxing overhead: 0.015202%
bench: utime=1886.620s
bench: maxrss=2801176kB
[libx264 @ 0x2a011c0] frame I:3     Avg QP:20.06  size:324434
[libx264 @ 0x2a011c0] frame P:268   Avg QP:27.52  size: 81221
[libx264 @ 0x2a011c0] frame B:229   Avg QP:27.22  size: 42106
[libx264 @ 0x2a011c0] consecutive B-frames: 36.2%  7.6% 18.0% 17.6% 11.0%  9.6%  0.0%  0.0%  0.0%
[libx264 @ 0x2a011c0] mb I  I16..4: 10.7% 79.1% 10.1%
[libx264 @ 0x2a011c0] mb P  I16..4: 18.7% 22.8%  0.6%  P16..4: 33.2%  3.9%  2.6%  0.0%  0.0%    skip:18.1%
[libx264 @ 0x2a011c0] mb B  I16..4:  1.1%  2.5%  0.2%  B16..8: 34.6%  4.5%  0.9%  direct: 2.0%  skip:54.2%  L0:44.3% L1:50.8% BI: 4.8%
[libx264 @ 0x2a011c0] final ratefactor: 23.07
[libx264 @ 0x2a011c0] 8x8 transform intra:55.6% inter:85.8%
[libx264 @ 0x2a011c0] direct mvs  spatial:99.1% temporal:0.9%
[libx264 @ 0x2a011c0] coded y,uvDC,uvAC intra: 21.1% 24.5% 2.7% inter: 8.8% 7.2% 0.2%
[libx264 @ 0x2a011c0] i16 v,h,dc,p: 20% 24% 11% 46%
[libx264 @ 0x2a011c0] i8 v,h,dc,ddl,ddr,vr,hd,vl,hu: 15% 14% 18%  7%  9%  9% 11%  7% 10%
[libx264 @ 0x2a011c0] i4 v,h,dc,ddl,ddr,vr,hd,vl,hu: 14% 15%  7%  7% 13% 11% 14%  7% 11%
[libx264 @ 0x2a011c0] i8c dc,h,v,p: 52% 27% 14%  6%
[libx264 @ 0x2a011c0] Weighted P-Frames: Y:1.5% UV:1.1%
[libx264 @ 0x2a011c0] ref P L0: 64.0% 16.7%  8.4%  3.0%  1.8%  1.4%  1.1%  0.7%  0.6%  0.6%  0.4%  0.4%  0.3%  0.3%  0.3%  0.2%
[libx264 @ 0x2a011c0] ref B L0: 86.7%  6.5%  2.6%  1.1%  0.8%  0.6%  0.4%  0.3%  0.3%  0.2%  0.2%  0.1%  0.1%  0.1%  0.1%
[libx264 @ 0x2a011c0] ref B L1: 98.0%  2.0%
[libx264 @ 0x2a011c0] kb/s:12434.98
